<svg width="92" height="92" viewBox="0 0 92 92" fill="none" xmlns="http://www.w3.org/2000/svg">
<g clip-path="url(#clip0_4626_1230)">
<path d="M46 92C33.8 92 22.0998 87.1536 13.4731 78.5269C4.84641 69.9002 0 58.2 0 46C0 33.8 4.84641 22.0998 13.4731 13.4731C22.0998 4.84641 33.8 0 46 0C58.2 0 69.9002 4.84641 78.5269 13.4731C87.1536 22.0998 92 33.8 92 46C92 58.2 87.1536 69.9002 78.5269 78.5269C69.9002 87.1536 58.2 92 46 92ZM81.65 55.2C83.2081 49.1656 83.2081 42.8344 81.65 36.8H64.078C64.5015 42.926 64.5015 49.074 64.078 55.2H81.65ZM77.878 64.4H63.066C62.2974 69.945 60.8291 75.3703 58.696 80.546C66.7769 77.565 73.562 71.8538 77.878 64.4ZM37.168 55.2H54.832C55.3315 49.0768 55.3315 42.9232 54.832 36.8H37.168C36.6685 42.9232 36.6685 49.0768 37.168 55.2ZM38.318 64.4C40.204 75.44 43.516 82.8 46 82.8C48.484 82.8 51.796 75.44 53.682 64.4H38.318ZM10.35 55.2H27.922C27.4985 49.074 27.4985 42.926 27.922 36.8H10.35C8.79193 42.8344 8.79193 49.1656 10.35 55.2ZM14.122 64.4C18.438 71.8538 25.2231 77.565 33.304 80.546C31.372 76.13 29.9 70.61 28.934 64.4H14.122ZM77.878 27.6C73.562 20.1462 66.7769 14.435 58.696 11.454C60.628 15.87 62.1 21.39 63.066 27.6H77.878ZM38.318 27.6H53.682C51.796 16.56 48.484 9.2 46 9.2C43.516 9.2 40.204 16.56 38.318 27.6ZM14.122 27.6H28.934C29.854 21.39 31.372 15.87 33.304 11.454C25.2231 14.435 18.438 20.1462 14.122 27.6Z" fill="url(#paint0_linear_4626_1230)"/>
</g>
<defs>
<linearGradient id="paint0_linear_4626_1230" x1="46" y1="0" x2="46" y2="92" gradientUnits="userSpaceOnUse">
<stop stop-color="#FBF197"/>
<stop offset="1" stop-color="#82FBD0"/>
</linearGradient>
<clipPath id="clip0_4626_1230">
<rect width="92" height="92" fill="white"/>
</clipPath>
</defs>
</svg>
