<svg width="182" height="21" viewBox="0 0 182 21" fill="none" xmlns="http://www.w3.org/2000/svg">
<g clip-path="url(#clip0_2011_4327)">
<path d="M123.247 18.4073V0.5625H133.189C139.958 0.5625 142.381 2.40679 142.381 6.39447C142.381 8.812 141.257 10.2824 138.835 11.0301C141.357 11.6283 142.157 13.024 142.157 15.9649V17.1113C142.157 17.6597 142.331 18.1581 142.781 18.4073H136.486C135.987 18.208 135.887 17.6597 135.887 17.211V15.8652C135.887 13.8963 135.138 13.3231 132.739 13.3231H129.142V18.4073H123.247ZM133.264 5.24801H129.142V8.86185H133.189C135.038 8.86185 136.286 8.53784 136.286 7.14215V6.99261C136.286 5.64677 135.362 5.24801 133.264 5.24801Z" fill="white"/>
<path d="M90.2656 18.9118C84.7553 18.9118 81.374 16.0061 81.374 9.86917V9.79401C81.374 3.48175 85.707 0 92.2945 0C98.3307 0 102.238 2.17923 102.889 7.18895H96.1266C95.7259 5.91148 94.6238 5.23517 92.2693 5.23517C89.2637 5.23517 87.6356 6.58779 87.6356 9.74392C87.6356 12.5494 89.0133 14.0272 92.1692 14.0272C94.774 14.0272 96.2519 13.2758 96.7278 11.8981H91.4679V8.59168H102.939V18.4107H97.6294L97.2537 13.4261C96.7278 17.2836 94.4485 18.9118 90.2656 18.9118Z" fill="white"/>
<path d="M67.4307 18.9719C61.8637 18.9719 58.4473 16.057 58.4473 9.90055V9.82517C58.4473 3.49283 62.8252 0 69.4804 0C75.5792 0 79.5268 2.18616 80.1847 7.21183H73.3523C72.9474 5.93029 71.8339 5.25181 69.4553 5.25181C66.4185 5.25181 64.7737 6.60875 64.7737 9.77491C64.7737 12.5893 66.1655 14.0718 69.354 14.0718C71.9857 14.0718 73.4787 13.318 73.9596 11.9359H68.6454V8.61901H80.2353V18.4693H74.8705L74.4909 13.4688C73.9596 17.3385 71.6568 18.9719 67.4307 18.9719Z" fill="white"/>
<path d="M19.3369 18.4114V0.476562H29.3055C36.0932 0.476562 38.5228 2.33017 38.5228 6.33795C38.5228 8.76766 37.3958 10.2455 34.9661 10.997C37.4959 11.5982 38.2974 13.0009 38.2974 15.9566V17.1088C38.2974 17.6599 38.4728 18.1609 38.9236 18.4114H32.6118C32.1109 18.211 32.0106 17.6599 32.0106 17.2091V15.8564C32.0106 13.8776 31.2593 13.3015 28.8547 13.3015H25.2478V18.4114H19.3369ZM29.3806 5.1857H25.2478V8.81776H29.3055C31.159 8.81776 32.4114 8.49212 32.4114 7.0894V6.93911C32.4114 5.58648 31.4847 5.1857 29.3806 5.1857Z" fill="white"/>
<path fill-rule="evenodd" clip-rule="evenodd" d="M1.53392 5.60757C1.59729 5.65342 1.69702 5.70654 1.81228 5.73677H2.15945C2.23405 5.71368 2.30725 5.67269 2.37475 5.60757C2.7351 5.25982 3.51588 4.98163 3.9363 5.60757C3.99174 5.65342 4.08417 5.70654 4.19946 5.73677H4.57144C4.65763 5.71368 4.74719 5.67269 4.83717 5.60757C5.31766 5.25982 6.63897 5.12073 6.21855 6.78987C6.03837 7.11443 5.78612 7.88872 6.21855 8.38947C6.65097 8.89019 6.31865 9.57177 6.09842 9.84994C5.99832 10.0354 5.85819 10.5176 6.09842 10.9627C6.21947 11.187 6.32099 11.5694 6.29288 11.9142C6.31249 12.1045 6.29237 12.3418 6.21855 12.6349C6.03837 12.9595 5.78612 13.7338 6.21855 14.2345C6.65097 14.7353 6.31865 15.4168 6.09842 15.695C5.99832 15.8805 5.85819 16.3627 6.09842 16.8078C6.31558 17.2101 6.46992 18.1216 5.92554 18.4114H12.0232V18.4011C11.4897 18.1004 11.6463 17.2055 11.8658 16.8079C12.1114 16.3628 11.9681 15.8806 11.8658 15.6952C11.6406 15.417 11.3008 14.7354 11.743 14.2347C12.1851 13.7339 11.9272 12.9596 11.743 12.6351C11.6675 12.3419 11.6469 12.1046 11.6669 11.9143C11.6382 11.5695 11.742 11.1871 11.8658 10.9628C12.1114 10.5177 11.9681 10.0355 11.8658 9.85004C11.6406 9.57185 11.3008 8.89029 11.743 8.38954C12.1851 7.88882 11.9272 7.11452 11.743 6.78995C11.3131 5.12082 12.664 5.25992 13.1553 5.60765C13.2472 5.67269 13.3386 5.71366 13.4266 5.73677H13.8076C13.9253 5.70654 14.0197 5.65348 14.0763 5.60765C14.5062 4.98172 15.3044 5.25992 15.6729 5.60765C15.7418 5.67269 15.8165 5.71366 15.8927 5.73677H16.2483C16.366 5.70654 16.4678 5.65348 16.5325 5.60765C16.6144 5.44537 16.8887 5.14864 17.3308 5.25992C17.7149 5.35658 17.9414 5.14533 18.0345 4.9818V0.476562H0.0507812V4.95475C0.131589 5.12059 0.356437 5.36191 0.75315 5.25982C1.18558 5.14854 1.45384 5.44528 1.53392 5.60757Z" fill="white"/>
<path fill-rule="evenodd" clip-rule="evenodd" d="M39.6641 18.4073V12.9985C39.7685 12.9957 39.8705 13.0127 39.9488 13.0553C40.1488 13.1639 40.2215 13.0914 40.3925 12.9208L40.4154 12.8978C40.6032 12.7109 41.3844 12.4884 41.9717 12.9135C42.4415 13.2536 42.9505 13.008 43.1462 12.8427C43.616 12.2758 44.2119 12.6065 44.4512 12.8427C46.2129 13.3387 46.0171 11.7798 45.6909 11.2129C45.43 10.7594 45.5821 10.2681 45.6909 10.0791C45.9302 9.79572 46.2912 9.10129 45.8214 8.5911C45.3517 8.0809 45.6257 7.29201 45.8214 6.96132C46.2782 5.26071 44.8427 5.40241 44.3207 5.75672C43.9031 6.04015 43.4942 5.87481 43.3419 5.75672C42.8851 5.11898 42.0369 5.40241 41.6455 5.75672C41.3322 6.04015 40.791 5.79571 40.7319 5.75672C40.7227 5.75059 40.7069 5.73483 40.6851 5.71308C40.5686 5.5964 40.2796 5.30686 39.8836 5.40241C39.8042 5.42159 39.7311 5.42888 39.6641 5.42694V0.5625H57.6478V5.33131C57.5225 5.41248 57.3488 5.45882 57.1215 5.40247C56.7645 5.31388 56.6277 5.48976 56.4955 5.66005C56.4585 5.70771 56.4219 5.75491 56.3807 5.79577C56.1354 6.03998 55.7122 6.04021 55.4074 5.75677C55.0265 5.40247 54.2012 5.11904 53.7568 5.75677C53.6086 5.87487 53.2108 6.04021 52.8045 5.75677C52.2966 5.40247 50.8999 5.26074 51.3443 6.96137C51.5348 7.29205 51.8013 8.08096 51.3443 8.59115C50.8871 9.10135 51.2384 9.79575 51.4713 10.0792C51.577 10.2682 51.7252 10.7594 51.4713 11.213C51.1539 11.7798 50.9634 13.3387 52.6775 12.8427C52.9102 12.6065 53.4901 12.2758 53.9472 12.8427C54.1377 13.008 54.6328 13.2537 55.09 12.9136C55.6613 12.4884 56.6587 12.5072 56.6136 12.8427C56.5685 13.1782 56.855 13.1687 57.058 13.0553C57.2175 12.9664 57.4767 12.989 57.6478 13.0708V18.4073H51.6366H39.6641Z" fill="white"/>
<path d="M104.835 18.4073C104.526 18.4073 104.276 18.1574 104.276 17.849V11.6255C104.276 11.3777 104.44 11.1595 104.678 11.0897L107.441 10.2798C107.951 10.1304 107.983 9.42037 107.489 9.22485L104.629 8.09317C104.416 8.00888 104.276 7.80307 104.276 7.574V1.12083C104.276 0.812472 104.526 0.5625 104.835 0.5625H121C121.308 0.5625 121.558 0.812472 121.558 1.12083V7.24629C121.558 7.60706 121.221 7.87309 120.87 7.78937L110.576 5.33282C110.426 5.29707 110.328 5.48446 110.442 5.58794C110.45 5.59574 110.46 5.60252 110.47 5.60812L116.331 8.83286C116.509 8.93101 116.62 9.11846 116.62 9.32204V10.1542C116.62 10.3738 116.491 10.5731 116.291 10.6633L110.021 13.4881C110.015 13.4906 110.009 13.4938 110.004 13.4975C109.919 13.5584 109.978 13.6927 110.081 13.6707L120.918 11.3449C121.254 11.2727 121.574 11.5185 121.592 11.8618L121.902 17.82C121.918 18.1393 121.664 18.4073 121.344 18.4073H104.835Z" fill="white"/>
<path fill-rule="evenodd" clip-rule="evenodd" d="M144.114 0.5625L151.552 8.00054C152.187 8.63539 152.899 9.14536 153.658 9.53049C152.899 9.91561 152.186 10.4256 151.551 11.0605L144.114 18.4983H151.855L154.378 15.9746C155.975 14.378 158.51 14.2923 160.207 15.7175L162.633 18.1436C165.861 21.3713 171.094 21.3713 174.321 18.1436L181.758 10.7059H174.093L171.548 13.2508C169.87 14.9297 167.151 14.9392 165.46 13.2722L164.761 12.5829L163.239 11.0605C162.604 10.4257 161.892 9.91578 161.133 9.53067C161.892 9.14552 162.605 8.63548 163.24 8.00054L170.677 0.5625L163.011 0.562866L160.488 3.0866C158.801 4.77386 156.066 4.77386 154.379 3.0866L151.855 0.562866L144.114 0.5625Z" fill="url(#paint0_linear_2011_4327)"/>
</g>
<defs>
<linearGradient id="paint0_linear_2011_4327" x1="162.936" y1="0.5625" x2="162.936" y2="20.5643" gradientUnits="userSpaceOnUse">
<stop stop-color="#FBF197"/>
<stop offset="1" stop-color="#82FBD0"/>
</linearGradient>
<clipPath id="clip0_2011_4327">
<rect width="181.817" height="20.6624" fill="white" transform="translate(0.0507812)"/>
</clipPath>
</defs>
</svg>
